<?xml version="1.0" encoding="UTF-8"?> <!-- Generator: Adobe Illustrator 22.1.0, SVG Export Plug-In . SVG Version: 6.00 Build 0) --> <svg xmlns="http://www.w3.org/2000/svg" xmlns:xlink="http://www.w3.org/1999/xlink" id="Слой_1" x="0px" y="0px" viewBox="0 0 400 400" style="enable-background:new 0 0 400 400;" xml:space="preserve"> <style type="text/css"> .st0{clip-path:url(#SVGID_2_);} .st1{fill:none;stroke:#D24A44;stroke-width:5;stroke-miterlimit:10;} .st2{fill:none;stroke:#FFFFFF;stroke-width:10;stroke-miterlimit:10;} .st3{fill:none;stroke:#D24A44;stroke-width:10;stroke-miterlimit:10;} .st4{clip-path:url(#SVGID_4_);} .st5{fill:#FFFFFF;} </style> <g> <polyline class="st2" points="332.7,353.5 241.5,353.5 241.5,327.5 380.8,327.5 380.8,353.5 354.5,353.5 "></polyline> <polygon class="st2" points="354.5,327.5 267.8,327.5 267.8,301.5 335.6,301.5 354.5,301.5 "></polygon> <polygon class="st2" points="35.9,338.9 19.2,322.2 126.5,214.9 141,200.4 170.9,170.5 187.6,187.3 "></polygon> <rect x="172.9" y="147.3" transform="matrix(0.7071 0.7071 -0.7071 0.7071 173.5717 -87.4274)" class="st2" width="38.8" height="37"></rect> <rect x="190.5" y="108.8" transform="matrix(0.7071 0.7071 -0.7071 0.7071 160.6112 -118.7168)" class="st2" width="66.2" height="51.5"></rect> <rect x="243.7" y="146.2" transform="matrix(0.7071 0.7071 -0.7071 0.7071 191.8733 -131.666)" class="st2" width="22.2" height="39.1"></rect> <rect x="181.2" y="83.7" transform="matrix(0.7071 0.7071 -0.7071 0.7071 129.3491 -105.7676)" class="st2" width="22.2" height="39.1"></rect> <rect x="158.2" y="46.2" transform="matrix(0.7071 0.7071 -0.7071 0.7071 110.582 -97.994)" class="st2" width="30.8" height="76.5"></rect> <rect x="258.2" y="146.3" transform="matrix(0.7071 0.7071 -0.7071 0.7071 210.6405 -139.4396)" class="st2" width="30.8" height="76.5"></rect> </g> </svg> 